<svg height="128" width="128" xmlns="http://www.w3.org/2000/svg" xmlns:xlink="http://www.w3.org/1999/xlink"><linearGradient id="a" gradientUnits="userSpaceOnUse"><stop offset="0" stop-color="#424048"/><stop offset="1"/></linearGradient><radialGradient id="i" cx="256" cy="-174.134" gradientTransform="matrix(.56173 0 0 -.56173 -79.802 13.177)" r="144" xlink:href="#a"/><linearGradient id="b" gradientUnits="userSpaceOnUse"><stop offset="0" stop-color="#5e5c64"/><stop offset="1" stop-color="#9a9996"/></linearGradient><linearGradient id="j" x1="367.573" x2="461.369" xlink:href="#b" y1="1296.628" y2="1296.628"/><linearGradient id="c" gradientUnits="userSpaceOnUse"><stop offset="0" stop-color="#c061cb"/><stop offset="1" stop-color="#ed333b"/></linearGradient><radialGradient id="k" cx="310.767" cy="-1.734" gradientTransform="matrix(1.62731 0 0 -1.62731 -456.654 44.335)" r="50" xlink:href="#c"/><linearGradient id="d" gradientUnits="userSpaceOnUse"><stop offset="0" stop-color="#1c71d8"/><stop offset="1" stop-color="#c061cb" stop-opacity="0"/></linearGradient><radialGradient id="l" cx="331.187" cy="2.223" gradientTransform="matrix(1.62731 0 0 -1.62731 -456.654 44.335)" r="50" xlink:href="#d"/><filter id="e" height="100%" width="100%" x="0%" y="0%"><feColorMatrix in="SourceGraphic" values="0 0 0 0 1 0 0 0 0 1 0 0 0 0 1 0 0 0 1 0"/></filter><mask id="n"><g filter="url(#e)"><path fill-opacity=".716" d="M0 0h128v128H0z"/></g></mask><linearGradient id="f" gradientUnits="userSpaceOnUse"><stop offset="0" stop-color="#99c1f1"/><stop offset="1" stop-color="#3584e4" stop-opacity="0"/></linearGradient><linearGradient id="o" gradientTransform="matrix(0 .8025 .8025 0 -165.54 102.798)" x1="-58.316" x2="34.192" xlink:href="#f" y1="296" y2="296"/><clipPath id="m"><path d="M0 0h192v152H0z"/></clipPath><linearGradient id="g" gradientUnits="userSpaceOnUse"><stop offset="0" stop-color="#1c71d8"/><stop offset="1" stop-color="#c061cb"/></linearGradient><linearGradient id="p" gradientTransform="rotate(-90 171.726 88.859) scale(.66414)" x1="266.209" x2="318.586" xlink:href="#g" y1="-28.409" y2="-28.409"/><mask id="r"><g filter="url(#e)"><path fill-opacity=".664" d="M0 0h128v128H0z"/></g></mask><linearGradient id="h" gradientUnits="userSpaceOnUse"><stop offset="0" stop-color="#fff"/><stop offset="1" stop-color="#fff" stop-opacity="0"/></linearGradient><linearGradient id="s" gradientTransform="matrix(.66 0 0 -.66 -139.2 91.88)" x1="320" x2="320" xlink:href="#h" y1="93" y2="13"/><clipPath id="q"><path d="M0 0h192v152H0z"/></clipPath><linearGradient id="t" x1="374.711" x2="454.233" xlink:href="#b" y1="1296.628" y2="1296.628"/><radialGradient id="u" cx="256" cy="-174.134" gradientTransform="matrix(.58333 0 0 -.58333 -85.333 11.222)" r="144" xlink:href="#a"/><linearGradient id="v" x1="367.701" x2="461.242" xlink:href="#b" y1="1296.628" y2="1296.628"/><radialGradient id="w" cx="310.767" cy="-1.734" gradientTransform="matrix(1.97867 0 0 -1.97867 -569.069 40.089)" r="50" xlink:href="#c"/><radialGradient id="x" cx="331.187" cy="2.223" gradientTransform="matrix(1.97867 0 0 -1.97867 -569.069 40.089)" r="50" xlink:href="#d"/><mask id="z"><g filter="url(#e)"><path fill-opacity=".716" d="M0 0h128v128H0z"/></g></mask><linearGradient id="A" gradientTransform="matrix(0 .93625 .93625 0 -205.13 106.598)" x1="-58.316" x2="34.192" xlink:href="#f" y1="296" y2="296"/><clipPath id="y"><path d="M0 0h192v152H0z"/></clipPath><linearGradient id="B" gradientTransform="matrix(0 -.8025 .8025 0 86.8 301.54)" x1="266.209" x2="318.586" xlink:href="#g" y1="-28.409" y2="-28.409"/><mask id="D"><g filter="url(#e)"><path fill-opacity=".664" d="M0 0h128v128H0z"/></g></mask><linearGradient id="E" gradientTransform="matrix(.8025 0 0 -.8025 -184.8 94.445)" x1="320" x2="320" xlink:href="#h" y1="93" y2="13"/><clipPath id="C"><path d="M0 0h192v152H0z"/></clipPath><path d="M124 66c0 33.137-26.863 60-60 60S4 99.137 4 66 30.863 6 64 6s60 26.863 60 60zm0 0" fill="#deddda"/><path d="M124.125 64c0-33.207-26.918-60.125-60.125-60.125S3.875 30.793 3.875 64 30.793 124.125 64 124.125 124.125 97.207 124.125 64zm0 0" fill="#deddda"/><path d="M116 64c0-28.719-23.281-52-52-52S12 35.281 12 64s23.281 52 52 52 52-23.281 52-52zm0 0" fill="url(#i)"/><path d="M460.472 1296.628c0 25.406-20.594 46-46 46s-46-20.594-46-46 20.593-46 46-46 46 20.594 46 46zm0 0" stroke="url(#j)" stroke-width="2" transform="rotate(90 855.55 505.078)"/><path d="M97 64c0-18.227-14.773-33-33-33S31 45.773 31 64s14.773 33 33 33 33-14.773 33-33zm0 0" fill="url(#k)"/><path d="M97 64c0-18.227-14.773-33-33-33S31 45.773 31 64s14.773 33 33 33 33-14.773 33-33zm0 0" fill="url(#l)"/><g clip-path="url(#m)" mask="url(#n)" transform="translate(-8 -16)"><path d="M72 104c13.254 0 24-10.746 24-24S85.254 56 72 56 48 66.746 48 80s10.746 24 24 24zm0 0" fill="url(#o)"/></g><path d="M64 49c8.285 0 15 6.715 15 15s-6.715 15-15 15-15-6.715-15-15 6.715-15 15-15zm0 0" fill="url(#p)"/><g fill="#fff"><path d="M62.355 52.383c0-5.45-4.417-9.867-9.87-9.867-5.45 0-9.868 4.418-9.868 9.867 0 5.449 4.418 9.87 9.867 9.87 5.453 0 9.871-4.421 9.871-9.87zm0 0" fill-opacity=".831"/><path d="M83.738 78.7a4.936 4.936 0 0 0-9.87 0 4.938 4.938 0 0 0 4.937 4.937 4.937 4.937 0 0 0 4.933-4.938zm0 0" fill-opacity=".545"/><path d="M74.691 71.3a3.29 3.29 0 1 0-3.289 3.29 3.29 3.29 0 0 0 3.29-3.29zm0 0" fill-opacity=".606"/></g><g clip-path="url(#q)" mask="url(#r)" transform="translate(-8 -16)"><path d="M105 80c0-18.227-14.773-33-33-33S39 61.773 39 80s14.773 33 33 33 33-14.773 33-33zm0 0" fill="url(#s)"/></g><path d="M453.472 1296.628c0 21.54-17.461 39-39 39-21.54 0-39-17.46-39-39 0-21.539 17.46-39 39-39 21.539 0 39 17.461 39 39zm0 0" fill="none" stroke="url(#t)" stroke-width="2" transform="rotate(90 855.55 505.078)"/><path d="M124.125 64c0-33.207-26.918-60.125-60.125-60.125S3.875 30.793 3.875 64 30.793 124.125 64 124.125 124.125 97.207 124.125 64zm0 0" fill="#f6f5f4"/><path d="M118 64c0-29.824-24.176-54-54-54S10 34.176 10 64s24.176 54 54 54 54-24.176 54-54zm0 0" fill="url(#u)"/><path d="M460.347 1296.628c0 25.336-20.54 45.875-45.875 45.875-25.336 0-45.875-20.539-45.875-45.875s20.539-45.875 45.875-45.875c25.335 0 45.875 20.54 45.875 45.875zm0 0" stroke="url(#v)" stroke-width="1.791" transform="rotate(90 855.55 505.078)"/><path d="M104.125 64c0-22.16-17.965-40.125-40.125-40.125S23.875 41.84 23.875 64 41.84 104.125 64 104.125 104.125 86.16 104.125 64zm0 0" fill="url(#w)"/><path d="M104.125 64c0-22.16-17.965-40.125-40.125-40.125S23.875 41.84 23.875 64 41.84 104.125 64 104.125 104.125 86.16 104.125 64zm0 0" fill="url(#x)"/><g clip-path="url(#y)" mask="url(#z)" transform="translate(-8 -16)"><path d="M72 108c15.465 0 28-12.535 28-28S87.465 52 72 52 44 64.535 44 80s12.535 28 28 28zm0 0" fill="url(#A)"/></g><path d="M64 45.875c10.012 0 18.125 8.113 18.125 18.125S74.012 82.125 64 82.125 45.875 74.012 45.875 64 53.988 45.875 64 45.875zm0 0" fill="url(#B)"/><path d="M62 49.875c0-6.629-5.371-12-12-12s-12 5.371-12 12 5.371 12 12 12 12-5.371 12-12zm0 0" fill="#fff" fill-opacity=".831"/><path d="M88 81.875c0-3.313-2.688-6-6-6s-6 2.688-6 6 2.688 6 6 6 6-2.688 6-6zm0 0" fill="#fff" fill-opacity=".545"/><path d="M77 72.875c0-2.21-1.79-4-4-4s-4 1.79-4 4 1.79 4 4 4 4-1.79 4-4zm0 0" fill="#fff" fill-opacity=".606"/><g clip-path="url(#C)" mask="url(#D)" transform="translate(-8 -16)"><path d="M112.125 80c0-22.16-17.965-40.125-40.125-40.125S31.875 57.84 31.875 80 49.84 120.125 72 120.125 112.125 102.16 112.125 80zm0 0" fill="url(#E)"/></g></svg>