<?xml version="1.0" encoding="utf-8"?>
<svg fill="#FFFFFF" height="800px" width="800px" version="1.1" id="Layer_1" viewBox="0 0 510.854 510.854" xmlns="http://www.w3.org/2000/svg">
  <g transform="matrix(0.512333, 0, 0, 0.764706, 109.359779, 120.379349)" style="">
    <g>
      <g>
        <path d="M271.483,474.154c5.522,0,10-4.478,10-10v-127.3c0-5.522-4.478-10-10-10c-5.522,0-10,4.478-10,10v127.301 C261.483,469.677,265.96,474.154,271.483,474.154z" style=""/>
        <path d="M271.483,300.979c5.522,0,10-4.478,10-10V257.72c0-5.522-4.478-10-10-10c-5.522,0-10,4.478-10,10v33.259 C261.483,296.502,265.96,300.979,271.483,300.979z" style=""/>
        <path d="M317.357,42.434h-19.496c-5.522,0-10,4.478-10,10c0,5.522,4.478,10,10,10h19.496c5.522,0,10-4.478,10-10 C327.357,46.911,322.879,42.434,317.357,42.434z" style=""/>
        <path d="M 340.294 0 L 170.56 0 C 152.398 0 137.623 14.775 137.623 32.938 L 137.623 104.042 C 137.623 106.783 138.748 109.404 140.735 111.292 L 184.549 152.916 L 194.965 192.498 L 194.965 276.392 L 170.676 276.392 C 165.153 276.392 160.676 280.87 160.676 286.392 L 160.676 364.378 C 160.676 369.9 165.153 374.378 170.676 374.378 L 194.965 374.378 L 194.965 470.354 C 194.965 492.686 213.133 510.854 235.465 510.854 L 305.888 510.854 C 311.41 510.854 315.888 506.376 315.888 500.854 L 315.888 192.497 L 326.304 152.916 L 370.118 111.292 C 372.105 109.404 373.23 106.783 373.23 104.042 L 373.23 32.938 C 373.231 14.775 358.455 0 340.294 0 Z M 194.276 354.378 L 180.677 354.378 L 180.677 296.392 L 194.276 296.392 L 194.276 354.378 Z M 295.889 490.854 L 235.466 490.854 C 224.162 490.854 214.966 481.658 214.966 470.354 L 214.966 201.204 L 295.889 201.204 L 295.889 490.854 Z M 298.18 181.203 L 212.675 181.203 L 206.469 157.623 L 304.385 157.623 L 298.18 181.203 Z M 313.364 137.623 L 197.489 137.623 L 157.622 99.749 L 157.622 62.434 L 251.986 62.434 C 257.508 62.434 261.986 57.956 261.986 52.434 C 261.986 46.912 257.508 42.434 251.986 42.434 L 157.622 42.434 L 157.622 32.938 C 157.622 25.804 163.426 20 170.559 20 L 340.293 20 C 347.426 20 353.23 25.804 353.23 32.938 L 353.23 52.434 L 353.23 99.749 L 353.231 99.749 L 313.364 137.623 Z" style=""/>
      </g>
    </g>
  </g>
  <rect x="269.798" y="47.224" width="14.385" height="65.033" style="stroke: rgba(0, 0, 0, 0);"/>
  <rect x="233.737" y="47.14" width="14.385" height="65.033" style="stroke: rgba(0, 0, 0, 0); fill: rgba(255, 255, 255, 0.91);"/>
  <rect x="251.817" y="47.085" width="14.385" height="65.033" style="stroke: rgba(0, 0, 0, 0); fill: rgba(255, 255, 255, 0.85);"/>
  <rect x="193.853" y="47.085" width="14.385" height="65.033" style="stroke: rgba(255, 255, 255, 0); fill: rgba(255, 255, 255, 0.86);"/>
  <rect x="213.795" y="47.279" width="14.385" height="65.033" style="stroke: rgba(0, 0, 0, 0); fill: rgba(255, 255, 255, 0.91);"/>
</svg>
