<?xml version="1.0" encoding="iso-8859-1"?>
<!-- Generator: Adobe Illustrator 17.0.1, SVG Export Plug-In . SVG Version: 6.00 Build 0)  -->
<!DOCTYPE svg PUBLIC "-//W3C//DTD SVG 1.1//EN" "http://www.w3.org/Graphics/SVG/1.1/DTD/svg11.dtd">
<svg version="1.1" id="Layer_1" xmlns="http://www.w3.org/2000/svg" xmlns:xlink="http://www.w3.org/1999/xlink" x="0px" y="0px"
	 width="32px" height="32px" viewBox="0 0 32 32" style="enable-background:new 0 0 32 32;" xml:space="preserve">
<g id="icon-s-sync">
	<rect id="icon-s-sync_1_" style="opacity:0;fill:#FFFFFF;" width="32" height="32"/>
	<g>
		<path style="opacity:0.6;fill:#FFFFFF;" d="M16.001,28.75c-0.655,0-1.313-0.05-1.973-0.152c-3.363-0.519-6.32-2.318-8.327-5.063
			c-2.008-2.748-2.824-6.115-2.296-9.482c0.056-0.356,0.298-0.654,0.635-0.781c0.337-0.127,0.716-0.063,0.993,0.168l5.404,4.509
			c0.251,0.209,0.383,0.527,0.356,0.852c-0.027,0.325-0.211,0.616-0.493,0.78l-3.482,2.032c0.155,0.252,0.32,0.5,0.497,0.742
			c1.691,2.314,4.184,3.829,7.018,4.267c2.835,0.439,5.676-0.255,7.996-1.952c0.445-0.327,1.072-0.229,1.397,0.217
			c0.326,0.446,0.229,1.071-0.217,1.397C21.3,27.902,18.688,28.75,16.001,28.75z"/>
		<path style="fill:#FFFFFF;" d="M27.607,18.793c-0.233,0-0.462-0.081-0.646-0.236l-5.309-4.49
			c-0.246-0.208-0.376-0.522-0.352-0.842c0.025-0.321,0.204-0.61,0.478-0.776l3.4-2.062c-0.154-0.252-0.319-0.498-0.496-0.74
			c-1.691-2.314-4.183-3.829-7.018-4.267C14.83,4.942,11.99,5.635,9.67,7.33C9.223,7.657,8.598,7.559,8.272,7.114
			C7.946,6.668,8.043,6.042,8.489,5.716c2.751-2.012,6.116-2.833,9.482-2.314c3.363,0.52,6.32,2.318,8.327,5.064
			c0.415,0.568,0.779,1.162,1.09,1.777c0.02,0.034,0.037,0.069,0.052,0.104c1.158,2.337,1.566,4.969,1.154,7.601
			c-0.056,0.357-0.3,0.656-0.639,0.782C27.843,18.772,27.725,18.793,27.607,18.793z"/>
	</g>
</g>
</svg>
