<?xml version="1.0" encoding="iso-8859-1"?>
<!-- Generator: Adobe Illustrator 22.1.0, SVG Export Plug-In . SVG Version: 6.00 Build 0)  -->
<svg version="1.1" id="Layer_1" xmlns="http://www.w3.org/2000/svg" xmlns:xlink="http://www.w3.org/1999/xlink" x="0px" y="0px"	 width="64" height="64" viewBox="0 0 64 64" style="enable-background:new 0 0 64 64;" xml:space="preserve">
<g id="icon-m-accept">
	<path style="fill:#FFFFFF;" d="M28.068,47.625c-1.649,0-3.195-0.835-4.371-2.363L13.656,32.208
		c-0.328-0.426-0.248-1.037,0.178-1.364c0.426-0.328,1.037-0.248,1.364,0.178l10.042,13.055c0.821,1.066,1.87,1.627,2.924,1.601
		c1.065-0.034,2.064-0.669,2.814-1.786l19.326-28.794c0.299-0.446,0.904-0.564,1.35-0.266c0.446,0.3,0.565,0.904,0.266,1.35
		L32.593,44.975c-1.109,1.652-2.66,2.592-4.367,2.647C28.173,47.624,28.121,47.625,28.068,47.625z"/>
	<rect id="icon-m-accept_1_" style="opacity:0;fill:#FFFFFF;" width="64" height="64"/>
</g>
</svg>
