<?xml version="1.0" encoding="iso-8859-1"?>
<!-- Generator: Adobe Illustrator 19.0.0, SVG Export Plug-In . SVG Version: 6.00 Build 0)  -->
<svg version="1.1" id="Layer_1" xmlns="http://www.w3.org/2000/svg" xmlns:xlink="http://www.w3.org/1999/xlink" x="0px" y="0px"
	 viewBox="0 0 32 32" style="enable-background:new 0 0 32 32;" xml:space="preserve">
<g id="icon-cover-camera_2_">
	<rect id="icon-cover-camera_3_" style="opacity:0;fill:#FFFFFF;" width="32" height="32"/>
	<path style="fill:#FFFFFF;" d="M29.142,1.05H16.602H16h-0.602C7.496,1.549,1.05,8.005,1.05,15.984v13.157
		c0,1.18,0.628,1.808,1.807,1.808h12.541H16h0.602c7.903-0.499,14.348-6.954,14.348-14.934V2.858
		C30.95,1.678,30.322,1.05,29.142,1.05z M16,27.23c-6.202,0-11.23-5.028-11.23-11.23C4.77,9.798,9.798,4.77,16,4.77
		c6.202,0,11.23,5.028,11.23,11.231C27.23,22.202,22.202,27.23,16,27.23z"/>
	<path style="opacity:0.4;fill:#FFFFFF;" d="M16,4.73C9.775,4.73,4.73,9.775,4.73,16c0,6.224,5.046,11.27,11.27,11.27
		c6.225,0,11.27-5.045,11.27-11.27C27.27,9.775,22.224,4.73,16,4.73z M16,23.574c-4.183,0-7.574-3.391-7.574-7.574
		S11.817,8.426,16,8.426s7.574,3.391,7.574,7.574S20.183,23.574,16,23.574z"/>
	<path style="fill:#FFFFFF;" d="M10.628,15.294c-0.101,0-0.203-0.016-0.303-0.047c-0.526-0.167-0.817-0.729-0.65-1.256
		c0.677-2.134,2.44-3.819,4.601-4.399c0.536-0.145,1.082,0.173,1.225,0.707c0.143,0.533-0.173,1.082-0.707,1.225
		c-1.509,0.405-2.74,1.583-3.213,3.073C11.446,15.022,11.052,15.294,10.628,15.294z"/>
</g>
</svg>
