<?xml version="1.0" encoding="iso-8859-1"?>
<!-- Generator: Adobe Illustrator 19.0.0, SVG Export Plug-In . SVG Version: 6.00 Build 0)  -->
<svg version="1.1" id="Layer_1" xmlns="http://www.w3.org/2000/svg" xmlns:xlink="http://www.w3.org/1999/xlink" x="0px" y="0px"
	 viewBox="0 0 64 64" style="enable-background:new 0 0 64 64;" xml:space="preserve">
<g id="icon-m-dismiss">
	<rect id="icon-m-dismiss_1_" style="opacity:0;fill:#FFFFFF;" width="64" height="64"/>
	<g>
		<g style="opacity:0.6;">
			<path style="fill:#FFFFFF;" d="M52.197,53.202c-0.256,0-0.512-0.098-0.707-0.293L35.735,37.152
				c-2.729-2.73-2.729-7.171,0.001-9.899l15.759-15.758c0.391-0.391,1.023-0.391,1.414,0s0.391,1.023,0,1.414L37.15,28.667
				c-1.95,1.949-1.95,5.121-0.001,7.071l15.755,15.757c0.391,0.391,0.391,1.023,0,1.414C52.709,53.104,52.453,53.202,52.197,53.202z
				"/>
		</g>
		<path style="fill:#FFFFFF;" d="M12.202,53.202c-0.256,0-0.512-0.098-0.707-0.293c-0.391-0.391-0.391-1.023,0-1.414L27.25,35.738
			c1.949-1.95,1.949-5.122,0-7.072L11.495,12.909c-0.391-0.391-0.391-1.023,0-1.414s1.023-0.391,1.414,0l15.755,15.757
			c2.729,2.729,2.729,7.17,0,9.9L12.909,52.909C12.714,53.104,12.458,53.202,12.202,53.202z"/>
	</g>
</g>
</svg>
