<?xml version="1.0" encoding="iso-8859-1"?>
<!-- Generator: Adobe Illustrator 17.0.1, SVG Export Plug-In . SVG Version: 6.00 Build 0)  -->
<!DOCTYPE svg PUBLIC "-//W3C//DTD SVG 1.1//EN" "http://www.w3.org/Graphics/SVG/1.1/DTD/svg11.dtd">
<svg version="1.1" id="Layer_1" xmlns="http://www.w3.org/2000/svg" xmlns:xlink="http://www.w3.org/1999/xlink" x="0px" y="0px"
	 width="96px" height="96px" viewBox="0 0 96 96" style="enable-background:new 0 0 96 96;" xml:space="preserve">
<g id="icon-l-developer-mode">
	<rect id="icon-l-developer-mode_1_" style="opacity:0;fill:#FFFFFF;" width="96" height="96"/>
	<path style="fill:#FFFFFF;" d="M36.112,89.499c-0.74,0-1.464-0.144-2.151-0.429l-5.073-2.101c-1.388-0.573-2.471-1.654-3.048-3.046
		c-0.579-1.396-0.58-2.932-0.002-4.326l1.177-2.847c0.325-0.782,0.095-1.697-0.559-2.227c-1.828-1.484-3.503-3.158-4.978-4.977
		c-0.201-0.251-0.455-0.44-0.757-0.566c-0.461-0.191-0.997-0.193-1.47,0.002l-2.851,1.18c-0.654,0.271-1.352,0.408-2.075,0.408
		c-2.313,0-4.44-1.39-5.292-3.458L6.93,62.04c-1.188-2.87,0.179-6.175,3.048-7.367l2.856-1.186c0.793-0.328,1.266-1.12,1.177-1.971
		c-0.245-2.321-0.247-4.688-0.005-7.036c0.091-0.853-0.381-1.645-1.173-1.976l-2.851-1.18c-1.392-0.576-2.475-1.66-3.051-3.053
		c-0.576-1.392-0.576-2.923,0-4.313l2.104-5.076c0.871-2.113,2.917-3.479,5.211-3.479c0.74,0,1.464,0.144,2.152,0.428l2.853,1.18
		c0.778,0.325,1.7,0.085,2.229-0.562c1.48-1.824,3.154-3.499,4.974-4.975c0.656-0.53,0.887-1.443,0.563-2.221l-1.179-2.856
		c-1.19-2.87,0.176-6.176,3.046-7.367l5.074-2.102c0.652-0.271,1.35-0.408,2.071-0.408c2.312,0,4.441,1.389,5.299,3.457l1.179,2.853
		c0.326,0.783,1.115,1.266,1.973,1.178c2.321-0.245,4.708-0.245,7.041-0.005c0.907,0.098,1.648-0.392,1.973-1.175l1.181-2.85
		c0.875-2.115,2.922-3.481,5.214-3.481c0.741,0,1.467,0.145,2.155,0.431l5.068,2.102c1.392,0.576,2.476,1.66,3.053,3.054
		c0.576,1.392,0.576,2.924-0.001,4.313l-1.179,2.849c-0.328,0.794-0.102,1.689,0.564,2.228c1.819,1.479,3.491,3.151,4.973,4.973
		c0.524,0.654,1.447,0.889,2.222,0.566l2.854-1.181c0.653-0.27,1.351-0.407,2.072-0.407c2.308,0,4.438,1.389,5.3,3.456l2.101,5.079
		c0.575,1.386,0.575,2.917-0.001,4.31c-0.577,1.395-1.661,2.48-3.051,3.055l-2.852,1.181c-0.783,0.326-1.268,1.137-1.177,1.971
		c0.244,2.354,0.244,4.721,0,7.04c-0.088,0.852,0.385,1.647,1.179,1.978l2.85,1.181c1.391,0.574,2.474,1.657,3.051,3.05
		s0.578,2.926,0.001,4.315l-2.1,5.073c-0.877,2.114-2.923,3.479-5.213,3.479c-0.001,0-0.001,0-0.001,0
		c-0.74,0-1.465-0.145-2.153-0.43l-2.852-1.181c-0.77-0.316-1.702-0.083-2.228,0.563c-1.473,1.813-3.146,3.486-4.973,4.975
		c-0.66,0.53-0.892,1.445-0.567,2.228l1.179,2.851c0.576,1.39,0.576,2.924-0.001,4.318c-0.577,1.394-1.659,2.478-3.047,3.053
		l-5.072,2.101c-0.653,0.27-1.351,0.406-2.072,0.406c-2.314,0-4.443-1.389-5.297-3.455l-1.184-2.858
		c-0.324-0.781-1.119-1.263-1.974-1.173c-2.317,0.244-4.704,0.241-7.033,0.003c-0.883-0.099-1.652,0.391-1.978,1.172l-1.176,2.852
		C40.451,88.133,38.404,89.499,36.112,89.499z M19.989,66.837c0.517,0,1.022,0.1,1.5,0.298c0.609,0.254,1.142,0.654,1.546,1.157
		c1.384,1.707,2.96,3.282,4.681,4.679c1.337,1.084,1.81,2.954,1.147,4.546l-1.177,2.846c-0.374,0.901-0.373,1.894,0.001,2.795
		c0.372,0.897,1.07,1.595,1.964,1.965l5.074,2.101c0.444,0.184,0.911,0.276,1.387,0.276c1.48,0,2.803-0.882,3.369-2.246l1.177-2.854
		c0.665-1.597,2.292-2.578,4.033-2.396c2.188,0.225,4.438,0.224,6.618-0.002c1.727-0.181,3.369,0.801,4.029,2.396l1.184,2.859
		c0.54,1.308,1.958,2.22,3.449,2.22c0.459,0,0.898-0.086,1.308-0.255l5.071-2.1c0.895-0.37,1.592-1.07,1.964-1.97
		c0.373-0.901,0.374-1.892,0.002-2.789l-1.179-2.851c-0.661-1.598-0.186-3.467,1.156-4.547c1.717-1.398,3.293-2.975,4.679-4.681
		c1.071-1.319,2.961-1.8,4.543-1.151l2.854,1.182c0.444,0.184,0.911,0.277,1.388,0.277c1.479,0,2.801-0.881,3.366-2.245l2.1-5.073
		c0.372-0.896,0.372-1.886-0.001-2.784c-0.372-0.898-1.071-1.597-1.968-1.968l-2.853-1.182c-1.617-0.673-2.581-2.293-2.4-4.032
		c0.23-2.182,0.23-4.408,0-6.621c-0.185-1.705,0.801-3.363,2.398-4.029l2.854-1.181c0.896-0.371,1.596-1.072,1.969-1.972
		c0.372-0.899,0.372-1.886,0.001-2.779l-2.1-5.077c-0.546-1.308-1.966-2.223-3.453-2.223c-0.458,0-0.898,0.086-1.309,0.255
		l-2.853,1.18c-1.574,0.655-3.476,0.172-4.543-1.157c-1.391-1.711-2.966-3.286-4.677-4.676c-1.358-1.099-1.823-2.926-1.152-4.546
		l1.179-2.851c0.372-0.897,0.372-1.885,0.001-2.783c-0.372-0.899-1.072-1.599-1.97-1.97l-5.069-2.102
		c-0.445-0.185-0.912-0.278-1.39-0.278c-1.48,0-2.802,0.882-3.366,2.246l-1.181,2.852c-0.664,1.599-2.278,2.59-4.029,2.398
		c-2.188-0.224-4.441-0.224-6.622,0.005c-1.718,0.182-3.364-0.802-4.03-2.4l-1.179-2.854c-0.543-1.308-1.962-2.222-3.452-2.222
		c-0.458,0-0.897,0.086-1.306,0.255l-5.073,2.102c-1.851,0.769-2.733,2.902-1.964,4.756l1.178,2.855
		c0.661,1.59,0.187,3.458-1.153,4.541c-1.711,1.388-3.287,2.964-4.682,4.684c-1.082,1.323-2.976,1.801-4.547,1.146l-2.849-1.179
		c-0.444-0.183-0.912-0.276-1.388-0.276c-1.481,0-2.801,0.88-3.363,2.243l-2.105,5.078c-0.371,0.896-0.371,1.884,0,2.782
		c0.372,0.898,1.071,1.598,1.968,1.97l2.854,1.181c1.619,0.676,2.58,2.295,2.395,4.03c-0.226,2.206-0.225,4.434,0.006,6.619
		c0.182,1.74-0.783,3.359-2.401,4.027l-2.854,1.186c-1.852,0.769-2.734,2.901-1.967,4.754l2.104,5.075
		c0.54,1.309,1.956,2.222,3.444,2.222c0.459,0,0.9-0.087,1.31-0.256l2.852-1.181C18.969,66.937,19.473,66.837,19.989,66.837z"/>
	<path style="opacity:0.6;fill:#FFFFFF;" d="M47.996,68.5c-2.693,0-5.33-0.526-7.838-1.566
		c-10.438-4.321-15.416-16.333-11.095-26.776C32.25,32.468,39.688,27.5,48.011,27.5c2.691,0,5.328,0.526,7.835,1.564
		c10.437,4.327,15.41,16.34,11.087,26.779C63.749,63.532,56.315,68.5,47.996,68.5z M48.011,29.5
		c-7.512,0-14.225,4.484-17.101,11.423c-3.899,9.424,0.593,20.263,10.013,24.163c2.265,0.938,4.644,1.414,7.073,1.414
		c7.508,0,14.216-4.483,17.09-11.422c3.901-9.42-0.587-20.261-10.005-24.166C52.817,29.975,50.438,29.5,48.011,29.5z"/>
</g>
</svg>
